<svg width="75" height="21" viewBox="0 0 75 21" fill="none" xmlns="http://www.w3.org/2000/svg">
<ellipse cx="72.3081" cy="17.9862" rx="2.06596" ry="2.05556" fill="#FF898A"/>
<path d="M0 19.8314V6.81583H4.82258L9.75272 17.46H10.0037V6.81583H12.7646V19.8314H7.90616L2.97602 9.18715H2.72503V19.8314H0Z" fill="#0A2342"/>
<path d="M21.9791 20.1701C20.7958 20.1701 19.762 19.968 18.8776 19.5639C18.0051 19.1479 17.282 18.6071 16.7083 17.9414C16.1346 17.2639 15.7043 16.5388 15.4175 15.7662C15.1426 14.9817 15.0052 14.221 15.0052 13.4841V13.0918C15.0052 12.2835 15.1486 11.4872 15.4354 10.7027C15.7342 9.91816 16.1764 9.20498 16.7621 8.56312C17.3477 7.90937 18.0768 7.39232 18.9493 7.01196C19.8218 6.61971 20.8317 6.42358 21.9791 6.42358C23.1264 6.42358 24.1364 6.61971 25.0089 7.01196C25.8814 7.39232 26.6104 7.90937 27.1961 8.56312C27.7817 9.20498 28.2239 9.91816 28.5227 10.7027C28.8215 11.4872 28.9709 12.2835 28.9709 13.0918V13.4841C28.9709 14.221 28.8275 14.9817 28.5406 15.7662C28.2538 16.5388 27.8235 17.2639 27.2498 17.9414C26.6762 18.6071 25.9471 19.1479 25.0626 19.5639C24.1902 19.968 23.1623 20.1701 21.9791 20.1701ZM21.9791 17.4422C22.8037 17.4422 23.5149 17.258 24.1125 16.8895C24.722 16.521 25.1881 16.0218 25.5108 15.3918C25.8335 14.7618 25.9949 14.0665 25.9949 13.3058C25.9949 12.4975 25.8276 11.7843 25.4929 11.1662C25.1702 10.5362 24.7101 10.043 24.1125 9.68638C23.5149 9.32979 22.8037 9.15149 21.9791 9.15149C21.1544 9.15149 20.4433 9.32979 19.8457 9.68638C19.2481 10.043 18.7879 10.5362 18.4652 11.1662C18.1425 11.7843 17.9812 12.4975 17.9812 13.3058C17.9812 14.0665 18.1425 14.7618 18.4652 15.3918C18.7879 16.0218 19.2481 16.521 19.8457 16.8895C20.4433 17.258 21.1544 17.4422 21.9791 17.4422Z" fill="#0A2342"/>
<path d="M35.6647 20.1701C34.4815 20.1701 33.4775 19.9859 32.6528 19.6174C31.8401 19.2489 31.2246 18.7378 30.8063 18.0841C30.3999 17.4303 30.1967 16.6815 30.1967 15.8375H33.0472C33.0472 16.3368 33.2504 16.7766 33.6568 17.1569C34.0751 17.5254 34.7444 17.7096 35.6647 17.7096C36.4774 17.7096 37.0989 17.5551 37.5292 17.2461C37.9595 16.9251 38.1746 16.5151 38.1746 16.0158C38.1746 15.5998 37.9953 15.2729 37.6368 15.0352C37.2782 14.7856 36.6985 14.6251 35.8978 14.5538L34.9117 14.4647C33.609 14.3577 32.5692 13.9595 31.7923 13.2701C31.0154 12.5688 30.627 11.6357 30.627 10.4709C30.627 9.63883 30.8242 8.91971 31.2186 8.31351C31.625 7.70731 32.1867 7.24374 32.9038 6.92281C33.6209 6.58999 34.4695 6.42358 35.4496 6.42358C36.4774 6.42358 37.3559 6.60188 38.085 6.95847C38.826 7.31506 39.3937 7.81428 39.7881 8.45614C40.1825 9.08612 40.3797 9.82307 40.3797 10.667H37.5113C37.5113 10.1915 37.338 9.77553 36.9914 9.41894C36.6448 9.06235 36.1308 8.88405 35.4496 8.88405C34.7922 8.88405 34.3022 9.04452 33.9795 9.36545C33.6568 9.67449 33.4954 10.043 33.4954 10.4709C33.4954 10.8394 33.6209 11.1603 33.8719 11.4337C34.1349 11.7071 34.5711 11.8675 35.1806 11.9151L36.1846 12.0042C37.1408 12.0874 37.9834 12.2954 38.7124 12.6282C39.4415 12.9492 40.0092 13.3949 40.4156 13.9655C40.8339 14.5241 41.043 15.2076 41.043 16.0158C41.043 16.8479 40.8219 17.5789 40.3797 18.2089C39.9494 18.827 39.3339 19.3084 38.5331 19.6531C37.7324 19.9978 36.7762 20.1701 35.6647 20.1701Z" fill="#0A2342"/>
<path d="M47.6224 20.1701C46.4392 20.1701 45.4352 19.9859 44.6105 19.6174C43.7978 19.2489 43.1823 18.7378 42.764 18.0841C42.3576 17.4303 42.1544 16.6815 42.1544 15.8375H45.0049C45.0049 16.3368 45.2081 16.7766 45.6145 17.1569C46.0328 17.5254 46.7021 17.7096 47.6224 17.7096C48.4351 17.7096 49.0566 17.5551 49.4869 17.2461C49.9172 16.9251 50.1323 16.5151 50.1323 16.0158C50.1323 15.5998 49.953 15.2729 49.5945 15.0352C49.2359 14.7856 48.6562 14.6251 47.8555 14.5538L46.8694 14.4647C45.5667 14.3577 44.5269 13.9595 43.75 13.2701C42.9731 12.5688 42.5847 11.6357 42.5847 10.4709C42.5847 9.63883 42.7819 8.91971 43.1763 8.31351C43.5827 7.70731 44.1444 7.24374 44.8615 6.92281C45.5786 6.58999 46.4272 6.42358 47.4073 6.42358C48.4351 6.42358 49.3136 6.60188 50.0427 6.95847C50.7837 7.31506 51.3514 7.81428 51.7458 8.45614C52.1402 9.08612 52.3374 9.82307 52.3374 10.667H49.469C49.469 10.1915 49.2957 9.77553 48.9491 9.41894C48.6025 9.06235 48.0885 8.88405 47.4073 8.88405C46.7499 8.88405 46.2599 9.04452 45.9372 9.36545C45.6145 9.67449 45.4531 10.043 45.4531 10.4709C45.4531 10.8394 45.5786 11.1603 45.8296 11.4337C46.0926 11.7071 46.5288 11.8675 47.1384 11.9151L48.1423 12.0042C49.0985 12.0874 49.9411 12.2954 50.6701 12.6282C51.3992 12.9492 51.9669 13.3949 52.3733 13.9655C52.7916 14.5241 53.0007 15.2076 53.0007 16.0158C53.0007 16.8479 52.7796 17.5789 52.3374 18.2089C51.9071 18.827 51.2916 19.3084 50.4909 19.6531C49.6901 19.9978 48.7339 20.1701 47.6224 20.1701Z" fill="#0A2342"/>
<path d="M53.7194 19.8314L58.04 6.81583H62.7909L67.2728 19.8314H64.2251L63.1673 16.6042H57.6994L56.6596 19.8314H53.7194ZM58.4703 14.1794H62.3606L60.7292 9.20498H60.0658L58.4703 14.1794Z" fill="#0A2342"/>
<rect x="70.2422" width="4.13192" height="13.3611" fill="#3A73E3"/>
</svg>
