<svg
              width="120"
              height="60"
              viewBox="0 0 75 21"
              fill="none"
              xmlns="http://www.w3.org/2000/svg"
            >
              <ellipse
                cx="72.3086"
                cy="17.9862"
                rx="2.06596"
                ry="2.05556"
                fill="#FF898A"
              />
              <path
                d="M0 19.8316V6.81608H4.82258L9.75272 17.4603H10.0037V6.81608H12.7646V19.8316H7.90616L2.97602 9.1874H2.72503V19.8316H0Z"
                fill="#FFFDF8"
              />
              <path
                d="M21.9791 20.1704C20.7958 20.1704 19.762 19.9683 18.8776 19.5642C18.0051 19.1481 17.282 18.6073 16.7083 17.9417C16.1346 17.2641 15.7043 16.5391 15.4175 15.7665C15.1426 14.982 15.0052 14.2213 15.0052 13.4843V13.0921C15.0052 12.2838 15.1486 11.4874 15.4354 10.7029C15.7342 9.91841 16.1764 9.20523 16.7621 8.56336C17.3477 7.90962 18.0768 7.39256 18.9493 7.0122C19.8218 6.61995 20.8317 6.42383 21.9791 6.42383C23.1264 6.42383 24.1364 6.61995 25.0089 7.0122C25.8814 7.39256 26.6104 7.90962 27.1961 8.56336C27.7817 9.20523 28.2239 9.91841 28.5227 10.7029C28.8215 11.4874 28.9709 12.2838 28.9709 13.0921V13.4843C28.9709 14.2213 28.8275 14.982 28.5406 15.7665C28.2538 16.5391 27.8235 17.2641 27.2498 17.9417C26.6762 18.6073 25.9471 19.1481 25.0626 19.5642C24.1902 19.9683 23.1623 20.1704 21.9791 20.1704ZM21.9791 17.4424C22.8037 17.4424 23.5149 17.2582 24.1125 16.8897C24.722 16.5213 25.1881 16.022 25.5108 15.3921C25.8335 14.7621 25.9949 14.0667 25.9949 13.306C25.9949 12.4977 25.8276 11.7846 25.4929 11.1665C25.1702 10.5365 24.7101 10.0432 24.1125 9.68662C23.5149 9.33003 22.8037 9.15174 21.9791 9.15174C21.1544 9.15174 20.4433 9.33003 19.8457 9.68662C19.2481 10.0432 18.7879 10.5365 18.4652 11.1665C18.1425 11.7846 17.9812 12.4977 17.9812 13.306C17.9812 14.0667 18.1425 14.7621 18.4652 15.3921C18.7879 16.022 19.2481 16.5213 19.8457 16.8897C20.4433 17.2582 21.1544 17.4424 21.9791 17.4424Z"
                fill="#FFFDF8"
              />
              <path
                d="M35.6647 20.1704C34.4815 20.1704 33.4775 19.9861 32.6528 19.6176C31.8401 19.2492 31.2246 18.7381 30.8063 18.0843C30.3999 17.4306 30.1967 16.6817 30.1967 15.8378H33.0472C33.0472 16.337 33.2504 16.7768 33.6568 17.1572C34.0751 17.5256 34.7444 17.7099 35.6647 17.7099C36.4774 17.7099 37.0989 17.5554 37.5292 17.2463C37.9595 16.9254 38.1746 16.5153 38.1746 16.0161C38.1746 15.6001 37.9953 15.2732 37.6368 15.0355C37.2782 14.7859 36.6985 14.6254 35.8978 14.5541L34.9117 14.4649C33.609 14.3579 32.5692 13.9598 31.7923 13.2703C31.0154 12.5691 30.627 11.636 30.627 10.4711C30.627 9.63908 30.8242 8.91995 31.2186 8.31375C31.625 7.70755 32.1867 7.24398 32.9038 6.92305C33.6209 6.59024 34.4695 6.42383 35.4496 6.42383C36.4774 6.42383 37.3559 6.60212 38.085 6.95871C38.826 7.3153 39.3937 7.81453 39.7881 8.45639C40.1825 9.08636 40.3797 9.82331 40.3797 10.6672H37.5113C37.5113 10.1918 37.338 9.77577 36.9914 9.41918C36.6448 9.06259 36.1308 8.8843 35.4496 8.8843C34.7922 8.8843 34.3022 9.04476 33.9795 9.36569C33.6568 9.67474 33.4954 10.0432 33.4954 10.4711C33.4954 10.8396 33.6209 11.1605 33.8719 11.4339C34.1349 11.7073 34.5711 11.8678 35.1806 11.9153L36.1846 12.0045C37.1408 12.0877 37.9834 12.2957 38.7124 12.6285C39.4415 12.9494 40.0092 13.3952 40.4156 13.9657C40.8339 14.5244 41.043 15.2078 41.043 16.0161C41.043 16.8481 40.8219 17.5791 40.3797 18.2091C39.9494 18.8272 39.3339 19.3086 38.5331 19.6533C37.7324 19.998 36.7762 20.1704 35.6647 20.1704Z"
                fill="#FFFDF8"
              />
              <path
                d="M47.6224 20.1704C46.4392 20.1704 45.4352 19.9861 44.6105 19.6176C43.7978 19.2492 43.1823 18.7381 42.764 18.0843C42.3576 17.4306 42.1544 16.6817 42.1544 15.8378H45.0049C45.0049 16.337 45.2081 16.7768 45.6145 17.1572C46.0328 17.5256 46.7021 17.7099 47.6224 17.7099C48.4351 17.7099 49.0566 17.5554 49.4869 17.2463C49.9172 16.9254 50.1323 16.5153 50.1323 16.0161C50.1323 15.6001 49.953 15.2732 49.5945 15.0355C49.2359 14.7859 48.6562 14.6254 47.8555 14.5541L46.8694 14.4649C45.5667 14.3579 44.5269 13.9598 43.75 13.2703C42.9731 12.5691 42.5847 11.636 42.5847 10.4711C42.5847 9.63908 42.7819 8.91995 43.1763 8.31375C43.5827 7.70755 44.1444 7.24398 44.8615 6.92305C45.5786 6.59024 46.4272 6.42383 47.4073 6.42383C48.4351 6.42383 49.3136 6.60212 50.0427 6.95871C50.7837 7.3153 51.3514 7.81453 51.7458 8.45639C52.1402 9.08636 52.3374 9.82331 52.3374 10.6672H49.469C49.469 10.1918 49.2957 9.77577 48.9491 9.41918C48.6025 9.06259 48.0885 8.8843 47.4073 8.8843C46.7499 8.8843 46.2599 9.04476 45.9372 9.36569C45.6145 9.67474 45.4531 10.0432 45.4531 10.4711C45.4531 10.8396 45.5786 11.1605 45.8296 11.4339C46.0926 11.7073 46.5288 11.8678 47.1384 11.9153L48.1423 12.0045C49.0985 12.0877 49.9411 12.2957 50.6701 12.6285C51.3992 12.9494 51.9669 13.3952 52.3733 13.9657C52.7916 14.5244 53.0007 15.2078 53.0007 16.0161C53.0007 16.8481 52.7796 17.5791 52.3374 18.2091C51.9071 18.8272 51.2916 19.3086 50.4909 19.6533C49.6901 19.998 48.7339 20.1704 47.6224 20.1704Z"
                fill="#FFFDF8"
              />
              <path
                d="M53.7194 19.8316L58.04 6.81608H62.7909L67.2728 19.8316H64.2251L63.1673 16.6045H57.6994L56.6596 19.8316H53.7194ZM58.4703 14.1797H62.3606L60.7292 9.20523H60.0658L58.4703 14.1797Z"
                fill="#FFFDF8"
              />
              <rect
                x="70.2427"
                width="4.13192"
                height="13.3611"
                fill="#3A73E3"
              />
            </svg>